<svg width="321" height="279" viewBox="0 0 321 279" fill="none" xmlns="http://www.w3.org/2000/svg">
<path d="M68.4471 160.138V237.759C71.2218 236.383 73.2221 235.609 75.0719 234.47C79.6317 231.783 84.1916 229.053 88.6009 226.129C89.6333 225.368 90.2894 224.203 90.4077 222.926V167.812C90.4077 153.474 90.7518 139.115 90.4077 124.82C90.2356 119.167 92.8812 115.018 95.3332 110.655C100.624 101.304 106.238 92.1254 111.723 82.8607C112.153 82.1299 112.691 81.4205 113.164 80.7112L114.261 80.8831C114.39 124.132 114.541 167.382 114.691 211.491C119.681 208.61 124.004 206.138 128.285 203.645C129.726 202.57 131.251 201.614 132.845 200.786C135.856 199.69 136.178 197.583 136.157 194.789C136.157 186.384 136.415 178.001 136.372 169.596C136.372 149.347 136.114 129.076 136.028 108.806V60.0108C136.028 56.636 135.748 53.2612 135.533 49.8864C135.06 42.4059 138.028 36.0647 141.792 29.8739C147.083 21.1467 152.181 12.2904 157.343 3.47723C159.279 0.166901 160.032 0.0379028 162.054 3.47723C166.527 10.8932 170.786 18.5242 175.195 25.8757C177.174 29.2505 179.282 32.5609 181.325 35.8927C181.777 36.6235 182.164 37.3544 182.594 38.0423L181.992 38.7946L160.677 28.3692C160.339 29.7019 160.109 31.0605 159.989 32.4319V49.1125C159.894 51.7887 161.496 54.2349 163.989 55.2173C174.486 61.0641 184.917 67.3409 195.672 73.4671C197.479 74.5204 199.328 75.6167 201.2 76.4765C204.355 78.0135 206.938 80.5134 208.577 83.6131C213.675 92.9852 219.332 102.056 224.687 111.278C225.956 113.428 226.967 115.857 228.107 118.157L227.204 119.081L161 80.7757L160.139 81.4205V102.916C160.26 104.247 160.972 105.453 162.075 106.205C176.357 114.696 190.703 123.036 205.093 131.441C214.471 136.944 223.805 142.511 233.205 147.971C237.7 150.572 242.238 153.13 246.884 155.473C250.442 157.395 253.341 160.335 255.208 163.921C260.37 172.835 265.505 181.769 270.609 190.726C271.835 192.876 272.889 195.025 274.007 197.347L273.254 198.056L160.118 133.354V138.599C160.118 144.553 160.118 150.486 160.333 156.419C160.477 157.786 161.206 159.026 162.333 159.815C177.518 168.542 192.79 177.141 207.996 185.889C221.16 193.413 234.259 201.044 247.422 208.567C257.574 214.35 267.812 219.939 277.922 225.764C284.159 229.375 290.225 233.266 296.29 237.114C297.372 237.797 298.278 238.724 298.936 239.822C305.631 251.574 312.265 263.345 318.831 275.139C319.262 275.913 319.541 276.773 320.057 277.955H275.491L275.125 277.16L296.527 264.542C295.129 263.618 294.182 262.973 293.214 262.393C287.945 259.254 282.675 256.159 277.405 253.042C275.695 251.894 273.459 251.894 271.749 253.042C261.682 258.975 251.552 264.779 241.443 270.668C238.367 272.453 235.27 274.194 232.301 276.15C228.774 278.493 224.816 278.299 220.902 278.299C210.033 278.413 199.156 278.499 188.273 278.557C186.851 278.514 185.455 278.185 184.165 277.59C194.618 270.045 205.996 264.241 216.987 257.771C227.978 251.301 239.163 244.874 250.863 237.995C249.078 236.899 247.917 236.103 246.712 235.437C241.851 232.729 236.861 230.192 232.129 227.29C230.286 225.893 227.761 225.805 225.827 227.075C213.524 234.255 201.157 241.305 188.832 248.571C175.733 256.18 162.677 263.897 149.578 271.528C146.421 273.704 143.029 275.52 139.469 276.945C135.273 278.149 130.93 278.772 126.564 278.794C115.96 278.987 105.356 278.794 94.7524 278.665C94.0276 278.602 93.307 278.48 92.6016 278.299L92.3219 277.354L204.663 211.534C202.727 210.352 201.157 209.384 199.565 208.395C195.629 206.074 191.65 203.817 187.714 201.495C185.01 199.645 181.448 199.645 178.744 201.495C169.324 207.256 159.795 212.824 150.267 218.434C143.577 222.346 136.824 226.172 130.113 230.063C113.293 239.779 96.4667 249.51 79.6317 259.254C70.6195 264.478 61.5858 269.658 52.6812 275.053C48.145 277.783 42.9183 279.148 37.625 278.987C26.2898 278.858 14.9547 278.987 3.61954 278.987C-0.3811 278.987 -0.854297 278.213 1.16753 274.688C6.05004 266.09 11.1046 257.492 16.0732 248.893C17.2131 246.916 18.224 244.852 19.3425 242.896C20.0953 241.649 21.1062 240.553 21.9881 239.371L23.0205 239.693V264.22C25.9887 262.586 28.1611 261.404 30.312 260.178C34.6138 257.706 38.9155 255.32 43.0452 252.634C44.1357 251.784 44.8089 250.51 44.895 249.13C44.895 238.167 44.6154 227.204 44.5939 216.241C44.5939 211.233 44.8089 206.203 45.2176 201.194C45.6908 195.219 49.3688 190.447 52.1865 185.567C56.7463 177.463 61.6934 169.574 66.5114 161.599C66.8555 161.118 67.2362 160.666 67.6513 160.245L68.4471 160.138Z" fill="white"/>
<path d="M68.4471 160.138V237.759C71.2218 236.383 73.2221 235.609 75.0719 234.47C79.6317 231.783 84.1916 229.053 88.6009 226.129C89.6333 225.368 90.2894 224.203 90.4077 222.926V167.812C90.4077 153.474 90.7518 139.115 90.4077 124.82C90.2356 119.167 92.8812 115.018 95.3332 110.655C100.624 101.304 106.238 92.1254 111.723 82.8607C112.153 82.1299 112.691 81.4205 113.164 80.7112L114.261 80.8831C114.39 124.132 114.541 167.382 114.691 211.491C119.681 208.61 124.004 206.138 128.285 203.645C129.726 202.57 131.251 201.614 132.845 200.786C135.856 199.69 136.178 197.583 136.157 194.789C136.157 186.384 136.415 178.001 136.372 169.596C136.372 149.347 136.114 129.076 136.028 108.806V60.0108C136.028 56.636 135.748 53.2612 135.533 49.8864C135.06 42.4059 138.028 36.0647 141.792 29.8739C147.083 21.1467 152.181 12.2904 157.343 3.47723C159.279 0.166901 160.032 0.0379028 162.054 3.47723C166.527 10.8932 170.786 18.5242 175.195 25.8757C177.174 29.2505 179.282 32.5609 181.325 35.8927C181.777 36.6235 182.164 37.3544 182.594 38.0423L181.992 38.7946L160.677 28.3692C160.339 29.7019 160.109 31.0605 159.989 32.4319V49.1125C159.894 51.7887 161.496 54.2349 163.989 55.2173C174.486 61.0641 184.917 67.3409 195.672 73.4671C197.479 74.5204 199.328 75.6167 201.2 76.4765C204.355 78.0135 206.938 80.5134 208.577 83.6131C213.675 92.9852 219.332 102.056 224.687 111.278C225.956 113.428 226.967 115.857 228.107 118.157L227.204 119.081L161 80.7757L160.139 81.4205V102.916C160.26 104.247 160.972 105.453 162.075 106.205C176.357 114.696 190.703 123.036 205.093 131.441C214.471 136.944 223.805 142.511 233.205 147.971C237.7 150.572 242.238 153.13 246.884 155.473C250.442 157.395 253.341 160.335 255.208 163.921C260.37 172.835 265.505 181.769 270.609 190.726C271.835 192.876 272.889 195.025 274.007 197.347L273.254 198.056L160.118 133.354V138.599C160.118 144.553 160.118 150.486 160.333 156.419C160.477 157.786 161.206 159.026 162.333 159.815C177.518 168.542 192.79 177.141 207.996 185.889C221.16 193.413 234.259 201.044 247.422 208.567C257.574 214.35 267.812 219.939 277.922 225.764C284.159 229.375 290.225 233.266 296.29 237.114C297.372 237.797 298.278 238.724 298.936 239.822C305.631 251.574 312.265 263.345 318.831 275.139C319.262 275.913 319.541 276.773 320.057 277.955H275.491L275.125 277.16L296.527 264.542C295.129 263.618 294.182 262.973 293.214 262.393C287.945 259.254 282.675 256.159 277.405 253.042C275.695 251.894 273.459 251.894 271.749 253.042C261.682 258.975 251.552 264.779 241.443 270.668C238.367 272.453 235.27 274.194 232.301 276.15C228.774 278.493 224.816 278.299 220.902 278.299C210.033 278.413 199.156 278.499 188.273 278.557C186.851 278.514 185.455 278.185 184.165 277.59C194.618 270.045 205.996 264.241 216.987 257.771C227.978 251.301 239.163 244.874 250.863 237.995C249.078 236.899 247.917 236.103 246.712 235.437C241.851 232.729 236.861 230.192 232.129 227.29C230.286 225.893 227.761 225.805 225.827 227.075C213.524 234.255 201.157 241.305 188.832 248.571C175.733 256.18 162.677 263.897 149.578 271.528C146.421 273.704 143.029 275.52 139.469 276.945C135.273 278.149 130.93 278.772 126.564 278.794C115.96 278.987 105.356 278.794 94.7524 278.665C94.0276 278.602 93.307 278.48 92.6016 278.299L92.3219 277.354L204.663 211.534C202.727 210.352 201.157 209.384 199.565 208.395C195.629 206.074 191.65 203.817 187.714 201.495C185.01 199.645 181.448 199.645 178.744 201.495C169.324 207.256 159.795 212.824 150.267 218.434C143.577 222.346 136.824 226.172 130.113 230.063C113.293 239.779 96.4667 249.51 79.6317 259.254C70.6195 264.478 61.5858 269.658 52.6812 275.053C48.145 277.783 42.9183 279.148 37.625 278.987C26.2898 278.858 14.9547 278.987 3.61954 278.987C-0.3811 278.987 -0.854297 278.213 1.16753 274.688C6.05004 266.09 11.1046 257.492 16.0732 248.893C17.2131 246.916 18.224 244.852 19.3425 242.896C20.0953 241.649 21.1062 240.553 21.9881 239.371L23.0205 239.693V264.22C25.9887 262.586 28.1611 261.404 30.312 260.178C34.6138 257.706 38.9155 255.32 43.0452 252.634C44.1357 251.784 44.8089 250.51 44.895 249.13C44.895 238.167 44.6154 227.204 44.5939 216.241C44.5939 211.233 44.8089 206.203 45.2176 201.194C45.6908 195.219 49.3688 190.447 52.1865 185.567C56.7463 177.463 61.6934 169.574 66.5114 161.599C66.8555 161.118 67.2362 160.666 67.6513 160.245L68.4471 160.138Z" fill="url(#paint0_linear_166_855)"/>
<defs>
<linearGradient id="paint0_linear_166_855" x1="160.029" y1="279" x2="160.029" y2="0.945862" gradientUnits="userSpaceOnUse">
<stop/>
<stop offset="1" stop-color="#828282"/>
</linearGradient>
</defs>
</svg>
